<?xml version="1.0" encoding="UTF-8"?>
<svg version="1.1" xmlns="http://www.w3.org/2000/svg" width="32" height="32">
<path d="M0 0 C1.67299959 0.65061095 3.33859237 1.32033324 5 2 C6.9924325 2.37593066 8.9918674 2.71979545 11 3 C11.268125 3.928125 11.53625 4.85625 11.8125 5.8125 C12.70930638 8.9450906 12.70930638 8.9450906 14.55371094 10.45068359 C17.1270083 13.20729147 16.34430016 17.0533814 16.25 20.625 C16.24484375 21.41390625 16.2396875 22.2028125 16.234375 23.015625 C16.15423563 28.84576437 16.15423563 28.84576437 15 30 C12.9394469 30.09993532 10.8754741 30.13080906 8.8125 30.1328125 C7.55695312 30.13410156 6.30140625 30.13539062 5.0078125 30.13671875 C4.35071289 30.13462402 3.69361328 30.1325293 3.01660156 30.13037109 C1.00838665 30.12502234 -0.99960459 30.13031691 -3.0078125 30.13671875 C-4.26335938 30.13542969 -5.51890625 30.13414063 -6.8125 30.1328125 C-7.97394531 30.13168457 -9.13539062 30.13055664 -10.33203125 30.12939453 C-13 30 -13 30 -14 29 C-14.18061582 26.21377886 -14.27813098 23.4759733 -14.3125 20.6875 C-14.35600586 19.52831055 -14.35600586 19.52831055 -14.40039062 18.34570312 C-14.46507421 12.55900999 -14.46507421 12.55900999 -12.02734375 9.62890625 C-11.35832031 9.09136719 -10.68929688 8.55382812 -10 8 C-9.20318682 5.35815459 -9.20318682 5.35815459 -9 3 C-7.329375 2.5359375 -7.329375 2.5359375 -5.625 2.0625 C-2.2054845 1.17673517 -2.2054845 1.17673517 0 0 Z M-7 5 C-7 8.63 -7 12.26 -7 16 C-5.02 16.99 -5.02 16.99 -3 18 C-2.67 17.67 -2.34 17.34 -2 17 C3.52941176 16.76470588 3.52941176 16.76470588 6 18 C6.99 17.34 7.98 16.68 9 16 C9.36460453 13.33346095 9.36460453 13.33346095 9.1875 10.375 C9.125625 8.60125 9.06375 6.8275 9 5 C3.72 5 -1.56 5 -7 5 Z M-10 11 C-10.33 11.66 -10.66 12.32 -11 13 C-10.34 13 -9.68 13 -9 13 C-9.33 12.34 -9.66 11.68 -10 11 Z M11 11 C11 11.66 11 12.32 11 13 C11.66 12.67 12.32 12.34 13 12 C12.34 11.67 11.68 11.34 11 11 Z M-11 16 C-11 18.31 -11 20.62 -11 23 C-9.68 22.34 -8.36 21.68 -7 21 C-7 20.01 -7 19.02 -7 18 C-8.32 17.34 -9.64 16.68 -11 16 Z M9.9375 18 C9.298125 18.66 8.65875 19.32 8 20 C9.37485532 21.54166642 9.37485532 21.54166642 11 23 C11.66 23 12.32 23 13 23 C13 20.69 13 18.38 13 16 C11.64082319 15.88397569 11.64082319 15.88397569 9.9375 18 Z M-5.125 21.9375 C-6.03507813 22.66839844 -6.94515625 23.39929688 -7.8828125 24.15234375 C-8.58148438 24.76207031 -9.28015625 25.37179688 -10 26 C-10 26.33 -10 26.66 -10 27 C-2.74 27 4.52 27 12 27 C7.21429968 22.20963112 7.21429968 22.20963112 2 18 C-1.15626655 18 -2.7208896 19.9888692 -5.125 21.9375 Z " fill="#000000" transform="translate(15,1)"/>
<path d="M0 0 C0.66 0 1.32 0 2 0 C2 0.99 2 1.98 2 3 C3.32 3.66 4.64 4.32 6 5 C6 5.66 6 6.32 6 7 C5.01 7 4.02 7 3 7 C3 7.66 3 8.32 3 9 C1.68 9 0.36 9 -1 9 C-1 8.34 -1 7.68 -1 7 C-1.99 7 -2.98 7 -4 7 C-3.34 5.68 -2.68 4.36 -2 3 C-1.34 3 -0.68 3 0 3 C0 2.01 0 1.02 0 0 Z " fill="#000000" transform="translate(15,7)"/>
</svg>
